<svg width="117" height="66" viewBox="0 0 117 66" fill="none" xmlns="http://www.w3.org/2000/svg">
<rect x="0.204187" y="0.204187" width="115.643" height="64.8706" rx="1.42931" fill="#121419"/>
<rect x="0.204187" y="0.204187" width="115.643" height="64.8706" rx="1.42931" fill="white" fill-opacity="0.04"/>
<path fill-rule="evenodd" clip-rule="evenodd" d="M50 18.6335C50 17.7313 50.7313 17 51.6335 17H64.3665C65.2687 17 66 17.7313 66 18.6335V31.3665C66 32.2687 65.2687 33 64.3665 33H51.6335C50.7313 33 50 32.2687 50 31.3665V18.6335ZM55.3061 24.5204L52.3998 26.7C52.148 26.8888 51.9998 27.1853 51.9998 27.5L51.9999 30C51.9999 30.5523 52.4476 31 52.9999 31H62.9999C63.5522 31 63.9999 30.5523 63.9999 30V23.4142C63.9999 23.149 63.8945 22.8946 63.707 22.7071L63.6328 22.6329C63.2725 22.2726 62.6989 22.2408 62.301 22.5591L58.6988 25.4409C58.3009 25.7592 57.7273 25.7274 57.367 25.3671L56.6132 24.6133C56.2613 24.2614 55.7042 24.2218 55.3061 24.5204ZM54 23C55.1046 23 56 22.1046 56 21C56 19.8954 55.1046 19 54 19C52.8954 19 52 19.8954 52 21C52 22.1046 52.8954 23 54 23Z" fill="#A4A5A7"/>
<path d="M25.3387 51H20.5634V42.4336H25.3387V43.3184H21.5595V46.0781H25.1102V46.957H21.5595V50.1094H25.3387V51ZM30.9877 50.1387H30.9349C30.4857 50.791 29.8138 51.1172 28.9193 51.1172C28.0795 51.1172 27.4252 50.8301 26.9564 50.2559C26.4916 49.6816 26.2591 48.8652 26.2591 47.8066C26.2591 46.748 26.4935 45.9258 26.9623 45.3398C27.431 44.7539 28.0834 44.4609 28.9193 44.4609C29.7904 44.4609 30.4584 44.7773 30.9232 45.4102H30.9994L30.9584 44.9473L30.9349 44.4961V41.8828H31.9076V51H31.1166L30.9877 50.1387ZM29.0423 50.3027C29.7064 50.3027 30.1869 50.123 30.4837 49.7637C30.7845 49.4004 30.9349 48.8164 30.9349 48.0117V47.8066C30.9349 46.8965 30.7826 46.248 30.4779 45.8613C30.1771 45.4707 29.6947 45.2754 29.0306 45.2754C28.4603 45.2754 28.0228 45.498 27.7181 45.9434C27.4173 46.3848 27.267 47.0098 27.267 47.8184C27.267 48.6387 27.4173 49.2578 27.7181 49.6758C28.0189 50.0938 28.4603 50.3027 29.0423 50.3027ZM34.4686 51H33.4959V44.5781H34.4686V51ZM33.4139 42.8379C33.4139 42.6152 33.4686 42.4531 33.578 42.3516C33.6873 42.2461 33.8241 42.1934 33.9881 42.1934C34.1444 42.1934 34.2791 42.2461 34.3924 42.3516C34.5057 42.457 34.5623 42.6191 34.5623 42.8379C34.5623 43.0566 34.5057 43.2207 34.3924 43.3301C34.2791 43.4355 34.1444 43.4883 33.9881 43.4883C33.8241 43.4883 33.6873 43.4355 33.578 43.3301C33.4686 43.2207 33.4139 43.0566 33.4139 42.8379ZM38.1253 50.3145C38.2972 50.3145 38.4632 50.3027 38.6234 50.2793C38.7835 50.252 38.9105 50.2246 39.0042 50.1973V50.9414C38.8988 50.9922 38.7425 51.0332 38.5355 51.0645C38.3323 51.0996 38.1488 51.1172 37.9847 51.1172C36.7425 51.1172 36.1214 50.4629 36.1214 49.1543V45.334H35.2015V44.8652L36.1214 44.4609L36.5316 43.0898H37.0941V44.5781H38.9573V45.334H37.0941V49.1133C37.0941 49.5 37.1859 49.7969 37.3695 50.0039C37.553 50.2109 37.805 50.3145 38.1253 50.3145ZM45.2337 51H44.2376V43.3184H41.5247V42.4336H47.9466V43.3184H45.2337V51ZM53.0095 51V46.8457C53.0095 46.3223 52.8904 45.9316 52.6521 45.6738C52.4138 45.416 52.0408 45.2871 51.533 45.2871C50.8572 45.2871 50.363 45.4707 50.0505 45.8379C49.742 46.2051 49.5877 46.8066 49.5877 47.6426V51H48.615V41.8828H49.5877V44.6426C49.5877 44.9746 49.572 45.25 49.5408 45.4688H49.5994C49.7908 45.1602 50.0623 44.918 50.4138 44.7422C50.7693 44.5625 51.1736 44.4727 51.6267 44.4727C52.4119 44.4727 52.9998 44.6602 53.3904 45.0352C53.7849 45.4062 53.9822 45.998 53.9822 46.8105V51H53.0095ZM56.4202 44.5781V48.7441C56.4202 49.2676 56.5393 49.6582 56.7776 49.916C57.0159 50.1738 57.3889 50.3027 57.8967 50.3027C58.5686 50.3027 59.0588 50.1191 59.3674 49.752C59.6799 49.3848 59.8362 48.7852 59.8362 47.9531V44.5781H60.8088V51H60.0061L59.8655 50.1387H59.8127C59.6135 50.4551 59.3362 50.6973 58.9807 50.8652C58.6291 51.0332 58.2268 51.1172 57.7737 51.1172C56.9924 51.1172 56.4065 50.9316 56.0159 50.5605C55.6291 50.1895 55.4358 49.5957 55.4358 48.7793V44.5781H56.4202ZM70.5827 51V46.8223C70.5827 46.3105 70.4734 45.9277 70.2546 45.6738C70.0359 45.416 69.696 45.2871 69.2351 45.2871C68.6296 45.2871 68.1823 45.4609 67.8933 45.8086C67.6042 46.1562 67.4597 46.6914 67.4597 47.4141V51H66.487V46.8223C66.487 46.3105 66.3777 45.9277 66.1589 45.6738C65.9402 45.416 65.5984 45.2871 65.1335 45.2871C64.5241 45.2871 64.0769 45.4707 63.7917 45.8379C63.5105 46.2012 63.3698 46.7988 63.3698 47.6309V51H62.3972V44.5781H63.1882L63.3464 45.457H63.3933C63.5769 45.1445 63.8347 44.9004 64.1667 44.7246C64.5027 44.5488 64.8777 44.4609 65.2917 44.4609C66.2956 44.4609 66.9519 44.8242 67.2605 45.5508H67.3073C67.4987 45.2148 67.7761 44.9492 68.1394 44.7539C68.5027 44.5586 68.9167 44.4609 69.3816 44.4609C70.1081 44.4609 70.6511 44.6484 71.0105 45.0234C71.3737 45.3945 71.5554 45.9902 71.5554 46.8105V51H70.5827ZM76.0734 44.4727C76.9172 44.4727 77.5715 44.7617 78.0363 45.3398C78.5051 45.9141 78.7395 46.7285 78.7395 47.7832C78.7395 48.8379 78.5031 49.6582 78.0305 50.2441C77.5617 50.8262 76.9094 51.1172 76.0734 51.1172C75.6555 51.1172 75.2727 51.041 74.925 50.8887C74.5812 50.7324 74.2922 50.4941 74.0578 50.1738H73.9875L73.7824 51H73.0852V41.8828H74.0578V44.0977C74.0578 44.5938 74.0422 45.0391 74.0109 45.4336H74.0578C74.5109 44.793 75.1828 44.4727 76.0734 44.4727ZM75.9328 45.2871C75.2687 45.2871 74.7902 45.4785 74.4973 45.8613C74.2043 46.2402 74.0578 46.8809 74.0578 47.7832C74.0578 48.6855 74.2082 49.332 74.509 49.7227C74.8098 50.1094 75.2922 50.3027 75.9562 50.3027C76.5539 50.3027 76.9992 50.0859 77.2922 49.6523C77.5852 49.2148 77.7316 48.5879 77.7316 47.7715C77.7316 46.9355 77.5852 46.3125 77.2922 45.9023C76.9992 45.4922 76.5461 45.2871 75.9328 45.2871ZM84.3591 51V46.8457C84.3591 46.3223 84.2399 45.9316 84.0016 45.6738C83.7634 45.416 83.3903 45.2871 82.8825 45.2871C82.2106 45.2871 81.7184 45.4688 81.4059 45.832C81.0934 46.1953 80.9372 46.7949 80.9372 47.6309V51H79.9645V44.5781H80.7555L80.9137 45.457H80.9606C81.1598 45.1406 81.4391 44.8965 81.7985 44.7246C82.1579 44.5488 82.5583 44.4609 82.9997 44.4609C83.7731 44.4609 84.3552 44.6484 84.7458 45.0234C85.1364 45.3945 85.3317 45.9902 85.3317 46.8105V51H84.3591ZM90.8048 51L90.6115 50.0859H90.5646C90.2443 50.4883 89.924 50.7617 89.6037 50.9062C89.2873 51.0469 88.8908 51.1172 88.4142 51.1172C87.7775 51.1172 87.2775 50.9531 86.9142 50.625C86.5548 50.2969 86.3752 49.8301 86.3752 49.2246C86.3752 47.9277 87.4123 47.248 89.4865 47.1855L90.5763 47.1504V46.752C90.5763 46.248 90.4669 45.877 90.2482 45.6387C90.0334 45.3965 89.6877 45.2754 89.2111 45.2754C88.6759 45.2754 88.0705 45.4395 87.3947 45.7676L87.0959 45.0234C87.4123 44.8516 87.758 44.7168 88.133 44.6191C88.5119 44.5215 88.8908 44.4727 89.2697 44.4727C90.0353 44.4727 90.6017 44.6426 90.9689 44.9824C91.34 45.3223 91.5255 45.8672 91.5255 46.6172V51H90.8048ZM88.6076 50.3145C89.213 50.3145 89.6877 50.1484 90.0314 49.8164C90.3791 49.4844 90.5529 49.0195 90.5529 48.4219V47.8418L89.5802 47.8828C88.8068 47.9102 88.2482 48.0312 87.9044 48.2461C87.5646 48.457 87.3947 48.7871 87.3947 49.2363C87.3947 49.5879 87.5002 49.8555 87.7111 50.0391C87.9259 50.2227 88.2248 50.3145 88.6076 50.3145ZM94.028 51H93.0553V44.5781H94.028V51ZM92.9733 42.8379C92.9733 42.6152 93.028 42.4531 93.1373 42.3516C93.2467 42.2461 93.3834 42.1934 93.5475 42.1934C93.7038 42.1934 93.8385 42.2461 93.9518 42.3516C94.0651 42.457 94.1217 42.6191 94.1217 42.8379C94.1217 43.0566 94.0651 43.2207 93.9518 43.3301C93.8385 43.4355 93.7038 43.4883 93.5475 43.4883C93.3834 43.4883 93.2467 43.4355 93.1373 43.3301C93.028 43.2207 92.9733 43.0566 92.9733 42.8379ZM96.5831 51H95.6105V41.8828H96.5831V51Z" fill="white" fill-opacity="0.6"/>
<rect x="0.204187" y="0.204187" width="115.643" height="64.8706" rx="1.42931" stroke="#121419" stroke-width="0.408375"/>
<rect x="0.204187" y="0.204187" width="115.643" height="64.8706" rx="1.42931" stroke="white" stroke-opacity="0.24" stroke-width="0.408375"/>
</svg>
