<svg width="48" height="48" viewBox="0 0 48 48" fill="none" xmlns="http://www.w3.org/2000/svg">
<rect x="0.204187" y="0.204187" width="47.5916" height="47.5916" rx="23.7958" fill="#121419"/>
<rect x="0.204187" y="0.204187" width="47.5916" height="47.5916" rx="23.7958" fill="white" fill-opacity="0.04"/>
<path fill-rule="evenodd" clip-rule="evenodd" d="M16 18.6335C16 17.7313 16.7313 17 17.6335 17H30.3665C31.2687 17 32 17.7313 32 18.6335V31.3665C32 32.2687 31.2687 33 30.3665 33H17.6335C16.7313 33 16 32.2687 16 31.3665V18.6335ZM21.3061 24.5204L18.3998 26.7C18.148 26.8888 17.9998 27.1853 17.9998 27.5L17.9999 30C17.9999 30.5523 18.4476 31 18.9999 31H28.9999C29.5522 31 29.9999 30.5523 29.9999 30V23.4142C29.9999 23.149 29.8945 22.8946 29.707 22.7071L29.6328 22.6329C29.2725 22.2726 28.6989 22.2408 28.301 22.5591L24.6988 25.4409C24.3009 25.7592 23.7273 25.7274 23.367 25.3671L22.6132 24.6133C22.2613 24.2614 21.7042 24.2218 21.3061 24.5204ZM20 23C21.1046 23 22 22.1046 22 21C22 19.8954 21.1046 19 20 19C18.8954 19 18 19.8954 18 21C18 22.1046 18.8954 23 20 23Z" fill="#B7F84D" fill-opacity="0.6"/>
<rect x="0.204187" y="0.204187" width="47.5916" height="47.5916" rx="23.7958" stroke="#121419" stroke-width="0.408375"/>
<rect x="0.204187" y="0.204187" width="47.5916" height="47.5916" rx="23.7958" stroke="white" stroke-opacity="0.24" stroke-width="0.408375"/>
</svg>
