<svg width="24" height="24" viewBox="0 0 24 24" fill="none" xmlns="http://www.w3.org/2000/svg">
<rect width="24" height="24" fill="#121419"/>
<path d="M6 5.6335C6 4.73134 6.73134 4 7.6335 4H13.6725C14.1356 4 14.5769 4.19654 14.8867 4.54075L17.5807 7.53408C17.8506 7.83403 18 8.22329 18 8.62683V18.3665C18 19.2687 17.2687 20 16.3665 20H7.6335C6.73134 20 6 19.2687 6 18.3665V5.6335Z" fill="#A4A5A7"/>
<path d="M5 4.6335C5 3.73134 5.73134 3 6.6335 3H14.1466C14.566 3 14.9694 3.16135 15.2732 3.45062L18.4931 6.51719C18.8168 6.8255 19 7.25302 19 7.70007V18.3665C19 19.2687 18.2687 20 17.3665 20H6.6335C5.73134 20 5 19.2687 5 18.3665V4.6335Z" fill="#A4A5A7"/>
<path d="M10.3022 14.4004C10.3022 14.8563 10.1432 15.2035 9.82511 15.4421C9.50969 15.6806 9.03656 15.7999 8.40572 15.7999C8.08235 15.7999 7.80669 15.7774 7.57873 15.7323C7.35078 15.6899 7.13741 15.6263 6.93862 15.5415V14.5396C7.16392 14.6456 7.41705 14.7344 7.69801 14.806C7.98162 14.8775 8.23078 14.9133 8.44548 14.9133C8.88548 14.9133 9.10548 14.7861 9.10548 14.5316C9.10548 14.4362 9.07632 14.3593 9.01801 14.301C8.95969 14.2401 8.85897 14.1725 8.71584 14.0982C8.57271 14.0214 8.38186 13.9326 8.14331 13.8319C7.80138 13.6887 7.54958 13.5562 7.38789 13.4343C7.22886 13.3123 7.11223 13.1732 7.03801 13.0168C6.96645 12.8578 6.93066 12.6629 6.93066 12.4323C6.93066 12.0374 7.08307 11.7326 7.38789 11.5179C7.69536 11.3005 8.13006 11.1919 8.69198 11.1919C9.2274 11.1919 9.74825 11.3085 10.2545 11.5417L9.88873 12.4164C9.66608 12.321 9.458 12.2428 9.26451 12.1819C9.07102 12.1209 8.87355 12.0904 8.6721 12.0904C8.31427 12.0904 8.13536 12.1872 8.13536 12.3807C8.13536 12.4893 8.19235 12.5834 8.30632 12.6629C8.42295 12.7425 8.67608 12.8604 9.06572 13.0168C9.41294 13.1573 9.6674 13.2885 9.82909 13.4104C9.99077 13.5323 10.1101 13.6728 10.1869 13.8319C10.2638 13.9909 10.3022 14.1804 10.3022 14.4004Z" fill="url(#paint0_linear_623_8753)"/>
<path d="M10.3022 14.4004C10.3022 14.8563 10.1432 15.2035 9.82511 15.4421C9.50969 15.6806 9.03656 15.7999 8.40572 15.7999C8.08235 15.7999 7.80669 15.7774 7.57873 15.7323C7.35078 15.6899 7.13741 15.6263 6.93862 15.5415V14.5396C7.16392 14.6456 7.41705 14.7344 7.69801 14.806C7.98162 14.8775 8.23078 14.9133 8.44548 14.9133C8.88548 14.9133 9.10548 14.7861 9.10548 14.5316C9.10548 14.4362 9.07632 14.3593 9.01801 14.301C8.95969 14.2401 8.85897 14.1725 8.71584 14.0982C8.57271 14.0214 8.38186 13.9326 8.14331 13.8319C7.80138 13.6887 7.54958 13.5562 7.38789 13.4343C7.22886 13.3123 7.11223 13.1732 7.03801 13.0168C6.96645 12.8578 6.93066 12.6629 6.93066 12.4323C6.93066 12.0374 7.08307 11.7326 7.38789 11.5179C7.69536 11.3005 8.13006 11.1919 8.69198 11.1919C9.2274 11.1919 9.74825 11.3085 10.2545 11.5417L9.88873 12.4164C9.66608 12.321 9.458 12.2428 9.26451 12.1819C9.07102 12.1209 8.87355 12.0904 8.6721 12.0904C8.31427 12.0904 8.13536 12.1872 8.13536 12.3807C8.13536 12.4893 8.19235 12.5834 8.30632 12.6629C8.42295 12.7425 8.67608 12.8604 9.06572 13.0168C9.41294 13.1573 9.6674 13.2885 9.82909 13.4104C9.99077 13.5323 10.1101 13.6728 10.1869 13.8319C10.2638 13.9909 10.3022 14.1804 10.3022 14.4004Z" fill="#0B0B0B"/>
<path d="M13.4037 11.1919C13.5681 11.1919 13.7046 11.2038 13.8132 11.2277L13.7218 12.3648C13.6237 12.3383 13.5045 12.325 13.364 12.325C12.977 12.325 12.6748 12.4244 12.4575 12.6232C12.2428 12.822 12.1354 13.1003 12.1354 13.4581V15.7204H10.9228V11.2754H11.8412L12.0201 12.0228H12.0798C12.2176 11.7737 12.4031 11.5736 12.6364 11.4225C12.8723 11.2687 13.1281 11.1919 13.4037 11.1919Z" fill="url(#paint1_linear_623_8753)"/>
<path d="M13.4037 11.1919C13.5681 11.1919 13.7046 11.2038 13.8132 11.2277L13.7218 12.3648C13.6237 12.3383 13.5045 12.325 13.364 12.325C12.977 12.325 12.6748 12.4244 12.4575 12.6232C12.2428 12.822 12.1354 13.1003 12.1354 13.4581V15.7204H10.9228V11.2754H11.8412L12.0201 12.0228H12.0798C12.2176 11.7737 12.4031 11.5736 12.6364 11.4225C12.8723 11.2687 13.1281 11.1919 13.4037 11.1919Z" fill="#0B0B0B"/>
<path d="M16.1673 14.8338C16.3793 14.8338 16.6338 14.7874 16.9307 14.6946V15.5972C16.6285 15.7323 16.2574 15.7999 15.8174 15.7999C15.3324 15.7999 14.9785 15.678 14.7559 15.4341C14.5359 15.1876 14.4259 14.8192 14.4259 14.3288V12.1858H13.8454V11.673L14.5133 11.2674L14.8632 10.3291H15.6385V11.2754H16.883V12.1858H15.6385V14.3288C15.6385 14.5011 15.6862 14.6284 15.7816 14.7105C15.8797 14.7927 16.0083 14.8338 16.1673 14.8338Z" fill="url(#paint2_linear_623_8753)"/>
<path d="M16.1673 14.8338C16.3793 14.8338 16.6338 14.7874 16.9307 14.6946V15.5972C16.6285 15.7323 16.2574 15.7999 15.8174 15.7999C15.3324 15.7999 14.9785 15.678 14.7559 15.4341C14.5359 15.1876 14.4259 14.8192 14.4259 14.3288V12.1858H13.8454V11.673L14.5133 11.2674L14.8632 10.3291H15.6385V11.2754H16.883V12.1858H15.6385V14.3288C15.6385 14.5011 15.6862 14.6284 15.7816 14.7105C15.8797 14.7927 16.0083 14.8338 16.1673 14.8338Z" fill="#0B0B0B"/>
<path d="M14 7V5.20711C14 4.76165 14.5386 4.53857 14.8536 4.85355L17.1464 7.14645C17.4614 7.46143 17.2383 8 16.7929 8H15C14.4477 8 14 7.55228 14 7Z" fill="#0B0B0B"/>
<defs>
<linearGradient id="paint0_linear_623_8753" x1="17.4217" y1="9.84681" x2="6.24852" y2="9.81303" gradientUnits="userSpaceOnUse">
<stop stop-color="#B7F84D"/>
<stop offset="1" stop-color="white"/>
</linearGradient>
<linearGradient id="paint1_linear_623_8753" x1="17.4217" y1="9.84681" x2="6.24852" y2="9.81303" gradientUnits="userSpaceOnUse">
<stop stop-color="#B7F84D"/>
<stop offset="1" stop-color="white"/>
</linearGradient>
<linearGradient id="paint2_linear_623_8753" x1="17.4217" y1="9.84681" x2="6.24852" y2="9.81303" gradientUnits="userSpaceOnUse">
<stop stop-color="#B7F84D"/>
<stop offset="1" stop-color="white"/>
</linearGradient>
</defs>
</svg>
