<svg width="24" height="24" viewBox="0 0 24 24" fill="none" xmlns="http://www.w3.org/2000/svg">
<g filter="url(#filter0_dd_615_4724)">
<path fill-rule="evenodd" clip-rule="evenodd" d="M12 21C17.5228 21 22 16.5228 22 11C22 5.47715 17.5228 1 12 1C6.47715 1 2 5.47715 2 11C2 16.5228 6.47715 21 12 21Z" fill="#0B0B0B"/>
</g>
<path fill-rule="evenodd" clip-rule="evenodd" d="M9 14.0002L6.70711 11.7073L6 11.0002L7.41421 9.58594L8.12132 10.293L10.4142 12.5859L15.7071 7.29304L16.4142 6.58594L17.8284 8.00015L17.1213 8.70726L11.8284 14.0002L11.1213 14.7073L10.4142 15.4144L9.70711 14.7073L9 14.0002Z" fill="white"/>
<defs>
<filter id="filter0_dd_615_4724" x="0" y="0" width="24" height="24" filterUnits="userSpaceOnUse" color-interpolation-filters="sRGB">
<feFlood flood-opacity="0" result="BackgroundImageFix"/>
<feColorMatrix in="SourceAlpha" type="matrix" values="0 0 0 0 0 0 0 0 0 0 0 0 0 0 0 0 0 0 127 0" result="hardAlpha"/>
<feOffset dy="1"/>
<feGaussianBlur stdDeviation="1"/>
<feColorMatrix type="matrix" values="0 0 0 0 0 0 0 0 0 0 0 0 0 0 0 0 0 0 0.2 0"/>
<feBlend mode="normal" in2="BackgroundImageFix" result="effect1_dropShadow_615_4724"/>
<feColorMatrix in="SourceAlpha" type="matrix" values="0 0 0 0 0 0 0 0 0 0 0 0 0 0 0 0 0 0 127 0" result="hardAlpha"/>
<feOffset dy="0.1"/>
<feGaussianBlur stdDeviation="0.15"/>
<feColorMatrix type="matrix" values="0 0 0 0 0 0 0 0 0 0 0 0 0 0 0 0 0 0 0.1 0"/>
<feBlend mode="normal" in2="effect1_dropShadow_615_4724" result="effect2_dropShadow_615_4724"/>
<feBlend mode="normal" in="SourceGraphic" in2="effect2_dropShadow_615_4724" result="shape"/>
</filter>
</defs>
</svg>
