<svg width="24" height="24" viewBox="0 0 24 24" fill="none" xmlns="http://www.w3.org/2000/svg">
<g filter="url(#filter0_dd_615_4994)">
<path fill-rule="evenodd" clip-rule="evenodd" d="M12 21C17.5228 21 22 16.5228 22 11C22 5.47715 17.5228 1 12 1C6.47715 1 2 5.47715 2 11C2 16.5228 6.47715 21 12 21Z" fill="white"/>
</g>
<path fill-rule="evenodd" clip-rule="evenodd" d="M9.70726 7.29304L9.00015 6.58594L7.58594 8.00015L8.29304 8.70726L10.5859 11.0002L8.29304 13.293L7.58594 14.0002L9.00015 15.4144L9.70726 14.7073L12.0002 12.4144L14.293 14.7073L15.0002 15.4144L16.4144 14.0002L15.7073 13.293L13.4144 11.0002L15.7073 8.70726L16.4144 8.00015L15.0002 6.58594L14.293 7.29304L12.0002 9.58594L9.70726 7.29304Z" fill="#0B0B0B"/>
<defs>
<filter id="filter0_dd_615_4994" x="0" y="0" width="24" height="24" filterUnits="userSpaceOnUse" color-interpolation-filters="sRGB">
<feFlood flood-opacity="0" result="BackgroundImageFix"/>
<feColorMatrix in="SourceAlpha" type="matrix" values="0 0 0 0 0 0 0 0 0 0 0 0 0 0 0 0 0 0 127 0" result="hardAlpha"/>
<feOffset dy="1"/>
<feGaussianBlur stdDeviation="1"/>
<feColorMatrix type="matrix" values="0 0 0 0 0 0 0 0 0 0 0 0 0 0 0 0 0 0 0.2 0"/>
<feBlend mode="normal" in2="BackgroundImageFix" result="effect1_dropShadow_615_4994"/>
<feColorMatrix in="SourceAlpha" type="matrix" values="0 0 0 0 0 0 0 0 0 0 0 0 0 0 0 0 0 0 127 0" result="hardAlpha"/>
<feOffset dy="0.1"/>
<feGaussianBlur stdDeviation="0.15"/>
<feColorMatrix type="matrix" values="0 0 0 0 0 0 0 0 0 0 0 0 0 0 0 0 0 0 0.1 0"/>
<feBlend mode="normal" in2="effect1_dropShadow_615_4994" result="effect2_dropShadow_615_4994"/>
<feBlend mode="normal" in="SourceGraphic" in2="effect2_dropShadow_615_4994" result="shape"/>
</filter>
</defs>
</svg>
