<svg width="20" height="20" viewBox="0 0 20 20" fill="none" xmlns="http://www.w3.org/2000/svg">
<path d="M5.83374 16.3589C5.00705 16.3567 4.21473 16.0279 3.62939 15.4441C3.04405 14.8603 2.71313 14.0689 2.70874 13.2422V11.1589C2.70873 10.9923 2.77431 10.8325 2.89128 10.714C3.00826 10.5954 3.16722 10.5277 3.33374 10.5255C3.49883 10.5277 3.65655 10.5942 3.7733 10.711C3.89004 10.8277 3.95658 10.9854 3.95874 11.1505V13.2339C3.96309 13.7298 4.16203 14.2042 4.51272 14.5549C4.86342 14.9056 5.33781 15.1045 5.83374 15.1089H14.1671C14.4129 15.1089 14.6563 15.0603 14.8833 14.966C15.1104 14.8717 15.3165 14.7334 15.49 14.5592C15.6634 14.385 15.8007 14.1782 15.894 13.9508C15.9874 13.7233 16.0348 13.4797 16.0337 13.2339V11.1505C16.0291 11.0654 16.0422 10.9802 16.0721 10.9003C16.1021 10.8205 16.1483 10.7477 16.2078 10.6866C16.2673 10.6255 16.3389 10.5774 16.4179 10.5454C16.497 10.5134 16.5818 10.4981 16.6671 10.5005C16.7494 10.4971 16.8315 10.5106 16.9083 10.5402C16.9852 10.5699 17.0551 10.615 17.1137 10.6729C17.1724 10.7307 17.2185 10.8001 17.2491 10.8765C17.2798 10.9529 17.2944 11.0349 17.2921 11.1172V13.2005C17.2943 13.6119 17.215 14.0197 17.0588 14.4003C16.9027 14.7809 16.6727 15.1268 16.3822 15.4181C16.0917 15.7094 15.7464 15.9403 15.3662 16.0974C14.986 16.2546 14.5785 16.335 14.1671 16.3339H5.83374V16.3589Z" fill="white"/>
<path d="M10.0005 13.4341C9.83546 13.432 9.67774 13.3654 9.56099 13.2487C9.44424 13.1319 9.3777 12.9742 9.37555 12.8091V5.30914C9.37442 5.22675 9.38982 5.14498 9.42084 5.06864C9.45185 4.99231 9.49784 4.92296 9.55611 4.8647C9.61437 4.80644 9.68371 4.76044 9.76005 4.72943C9.83638 4.69842 9.91816 4.68302 10.0005 4.68414C10.1649 4.68412 10.3226 4.74883 10.4396 4.86424C10.5565 4.97966 10.6234 5.13649 10.6255 5.30081V12.8008C10.6256 12.9673 10.56 13.1272 10.443 13.2457C10.326 13.3643 10.1671 13.4319 10.0005 13.4341Z" fill="white"/>
<path d="M6.45033 8.44236C6.3285 8.43852 6.21038 8.39962 6.11011 8.33031C6.00985 8.261 5.93172 8.16424 5.88509 8.05163C5.83846 7.93901 5.82532 7.81534 5.84724 7.69544C5.86916 7.57555 5.92521 7.46452 6.00866 7.37569L9.53366 3.82569C9.6533 3.71011 9.81315 3.64551 9.9795 3.64551C10.1458 3.64551 10.3057 3.71011 10.4253 3.82569L13.967 7.35069C14.084 7.46788 14.1498 7.62673 14.1498 7.79236C14.1498 7.95798 14.084 8.11683 13.967 8.23402C13.8498 8.35106 13.691 8.41681 13.5253 8.41681C13.3597 8.41681 13.2008 8.35106 13.0837 8.23402L10.0003 5.15069L6.90033 8.25069C6.84177 8.31087 6.77183 8.35881 6.69458 8.39172C6.61732 8.42462 6.5343 8.44183 6.45033 8.44236Z" fill="white"/>
</svg>
